<svg height="16" viewBox="0 0 18 16" width="18" xmlns="http://www.w3.org/2000/svg"><path d="m1322 268.707691c0-.325875.11796-.60158.35387-.827195.23593-.225615.51965-.338392.85123-.338392h1.20509v5.282762h-1.20509c-.33156 0-.6153-.112817-.85123-.338392-.23591-.225615-.35387-.501359-.35387-.827214zm13.39001-4.85035c.54836-.513877 1.04569-.79586 1.49203-.84599.44633-.05013.84166.065787 1.18597.34779.34431.281984.63762.695601.87991 1.240772.2423.545191.43998 1.153049.593 1.823595.15302.670526.26779 1.372365.34431 2.105559.0765.733193.11477 1.431933.11477 2.09618s-.04783 1.328514-.14346 1.992781c-.09562.664247-.23591 1.287782-.42083 1.870586-.1849.582783-.40168 1.093501-.65037 1.532173-.24866.438692-.52604.764527-.83208.977604-.30606.213058-.63442.288263-.98511.225575-.3507-.062667-.71733-.307038-1.09991-.733173-.36981-.426135-.87035-.780204-1.5016-1.062188-.63124-.281983-1.31986-.520116-2.06588-.714396-.74601-.194262-1.50159-.35093-2.26673-.469987-.76514-.119076-1.46652-.225614-2.10413-.319596-.63762-.093981-1.17005-.184882-1.59724-.272585-.4272-.087742-.66633-.194281-.71733-.319616v-5.884322c.051-.175446.25186-.319596.60256-.432394.35067-.112797.797-.219336 1.33899-.319596.54197-.10026 1.15409-.209938 1.83634-.328994.68225-.119076 1.37726-.281984 2.08503-.488802.70776-.206799 1.39958-.469986 2.07546-.789602.67584-.319596 1.28794-.730054 1.8363-1.231374zm-6.71242 11.588706c0 .889411.35928 1.741109.99629 2.361804l.34282.334038c.19778.192711.20189.509267.00918.707047-.09411.096588-.22325.151064-.35811.151064h-1.8888l-.32745-.319059c-1.01942-.993304-1.59438-2.356284-1.59438-3.779617z" fill="#aab6cc" transform="translate(-1322 -263)"/></svg>