<?xml version="1.0" encoding="UTF-8"?>
<svg width="16px" height="14px" viewBox="0 0 16 14" version="1.1" xmlns="http://www.w3.org/2000/svg" xmlns:xlink="http://www.w3.org/1999/xlink">
    <!-- Generator: Sketch 49 (51002) - http://www.bohemiancoding.com/sketch -->
    <title>Combined Shape@1x</title>
    <desc>Created with Sketch.</desc>
    <defs></defs>
    <g id="UI" stroke="none" stroke-width="1" fill="none" fill-rule="evenodd">
        <g id="1社区运营平台_社区通知" transform="translate(-23.000000, -403.000000)" fill="#AAB6CC">
            <path d="M37.9159247,403.221586 C37.7422702,403.233987 37.5721083,403.306571 37.4393398,403.43934 L31.6128194,409.138127 C31.3201557,409.43079 30.8457353,409.431053 30.5527474,409.138714 L27.5297419,406.122403 C27.2365243,405.829834 26.7616508,405.830361 26.4690824,406.123578 C26.176514,406.416796 26.1770404,406.89167 26.4702581,407.184238 L29.4932635,410.200549 C30.3722272,411.077567 31.7954885,411.076778 32.6734796,410.198787 L38.5,404.5 C38.6442849,404.355715 38.7174923,404.167268 38.7196221,403.978169 C38.8977078,404.277222 39,404.626665 39,405 L39,415 C39,416.104569 38.1045695,417 37,417 L25,417 C23.8954305,417 23,416.104569 23,415 L23,405 C23,403.895431 23.8954305,403 25,403 L37,403 C37.3300909,403 37.6415045,403.079967 37.9159247,403.221586 Z" id="Combined-Shape"></path>
        </g>
    </g>
</svg>