<svg height="20" viewBox="0 0 20 20" width="20" xmlns="http://www.w3.org/2000/svg"><path d="m1344.50155 483.570766.49434-1.185243-1.31411-.82173c.05769-.369688.05769-.73731.00516-1.098757l1.31306-.826906-.48818-1.189375-1.50565.349077c-.21524-.296572-.47581-.560184-.77757-.78675l.34192-1.505491-1.18639-.49633-.81359 1.303668c-.37177-.058701-.74356-.059745-1.10607-.007196l-.80742-1.305733-1.1895.485025.32648 1.501382c-.2966.216261-.56333.478851-.78989.782641l-1.49021-.352186-.49536 1.185244 1.28834.832035c-.05768.371731-.05768.744529-.00311 1.111129l-1.3038.804229.48714 1.191417 1.50258-.327443c.21833.29555.4789.559162.78168.783662l-.35222 1.498296 1.18536.494286.83727-1.299559c.36973.055591.74252.05457 1.10296-.002066l.82699 1.311908 1.18845-.488135-.34911-1.507579c.29249-.216261.55613-.475764.77859-.775423l1.51186.341881zm-5.27349-.726308c-1.01766-.426352-1.49891-1.596182-1.07278-2.617747.42615-1.018145 1.59772-1.497339 2.6165-1.071012 1.01883.427519 1.49891 1.597323 1.07278 2.617748-.42615 1.017005-1.59773 1.497339-2.6165 1.071011zm-1.22815 7.455052v-1.624986l-1.93394-.316617c-.11453-.457026-.29377-.888174-.53178-1.282513l1.1273-1.607076-1.14921-1.148052-1.5854 1.141094c-.39633-.239948-.82855-.422171-1.29065-.536679l-.33658-1.924681h-1.62523l-.31271 1.918732c-.46208.112534-.89726.292715-1.29364.53071l-1.58141-1.128123-1.15022 1.148053 1.11236 1.590153c-.23999.39829-.42325.832401-.53876 1.297416l-1.91004.317627v1.624986l1.90809.337535c.11551.464006.29776.899148.53976 1.298404l-1.12829 1.576215 1.14921 1.15005 1.59338-1.115194c.39835.23896.83151.420173 1.29363.533694l.31869 1.919742h1.62623l.34158-1.924681c.4591-.115496.89231-.298728 1.28666-.538677l1.60334 1.126148 1.14921-1.15005-1.14425-1.589165c.23702-.395283.41727-.825444.5298-1.284467l1.93296-.339532zm-6.49937 1.70049c-1.38104 0-2.50054-1.119553-2.50054-2.500545s1.11955-2.499455 2.50054-2.499455c1.381 0 2.49946 1.119553 2.49946 2.499455 0 1.381041-1.11841 2.500545-2.49946 2.500545z" fill="#a8b7c7" transform="translate(-1325 -476)"/></svg>