<svg height="18" viewBox="0 0 19 18" width="19" xmlns="http://www.w3.org/2000/svg"><path d="m1335.57353 419h-2.54853-4.825c-2.3196 0-4.2-1.880404-4.2-4.2 0-3.24 5.70729-4.8 8.61477-4.8h1.978c.03336 0 .23214-.000224.54372.014261-1.01802 1.135615-1.63649 2.631852-1.63649 4.271453 0 1.862618.79815 3.540219 2.07353 4.714286zm-2.98035-9.428571c-2.38486 0-4.31818-1.91878-4.31818-4.285715 0-2.366934 1.93332-4.285714 4.31818-4.285714 2.38487 0 4.31818 1.91878 4.31818 4.285714 0 2.366935-1.93331 4.285715-4.31818 4.285715zm5.225 4.711937c0-.361976.12339-.662824.37488-.911978.2515-.249154.55519-.371388.92058-.371388.36537 0 .66907.122234.92058.371388s.37487.550002.37487.911978c0 .361986-.12337.667551-.37487.916695-.25151.249144-.55521.371368-.92058.371368-.36539 0-.67027-.121053-.92058-.371368-.25269-.252678-.37488-.559415-.37488-.916695zm-1.42085.732749c.06615.233884.16539.463686.28528.677049l-.7442.906852.84342.837073.91364-.738603c.215.119.45066.21748.68632.28724l.12404 1.157131h1.21553l.12403-1.157131c.23567-.06976.45894-.16824.68632-.28724l.90959.738603.85171-.837073-.74834-.906852c.11576-.213363.21912-.443156.28939-.677049l1.16594-.127207v-1.206379l-1.16594-.123099c-.07027-.233893-.17363-.451372-.28939-.677049l.74834-.906843-.85171-.845289-.90959.742702c-.23152-.114901-.45065-.217479-.68632-.287231l-.12402-1.157149h-1.21554l-.12403 1.157149c-.24394.069752-.47133.172339-.68633.287231l-.91363-.742702-.84343.845289.74421.906843c-.11577.225686-.215.443156-.28528.677049l-1.17007.123099v1.206379z" fill="#aab6cc" fill-rule="evenodd" transform="translate(-1324 -401)"/></svg>